<svg width="48" height="48" viewBox="0 0 48 48" fill="none" xmlns="http://www.w3.org/2000/svg">
<path d="M32.8438 32.8029C37.5963 28.0277 37.4351 20.2309 32.5704 15.3887C27.7056 10.5464 19.9087 10.4219 15.1562 15.1971C10.4037 19.9723 10.5649 27.7691 15.4296 32.6114C20.2944 37.4536 28.0913 37.5781 32.8438 32.8029Z" stroke="#33363F" stroke-width="2"/>
<path d="M23.7851 11.2721C20.4095 11.231 17.1947 12.5325 14.8481 14.8904C12.5014 17.2483 11.2151 20.4693 11.2721 23.845C11.3291 27.2206 12.7247 30.4744 15.1519 32.8904C17.5792 35.3064 20.8392 36.6868 24.2149 36.7279L24 24L23.7851 11.2721Z" fill="#33363F"/>
<rect x="23.8579" y="2.39807" width="10.3007" height="1.71666" rx="0.85833" transform="rotate(90 23.8579 2.39807)" fill="#1E494A"/>
<rect x="23.8579" y="35.0168" width="10.3007" height="1.71666" rx="0.85833" transform="rotate(90 23.8579 35.0168)" fill="#1E494A"/>
<rect x="12.6992" y="25.5746" width="10.3" height="2.57517" rx="1.28758" transform="rotate(-180 12.6992 25.5746)" fill="#1E494A"/>
<rect width="10.286" height="1.95082" rx="0.975409" transform="matrix(-0.776335 0.63032 -0.630268 -0.776377 16.166 31.9496)" fill="#1E494A"/>
<rect width="10.2127" height="1.95081" rx="0.975405" transform="matrix(-0.73092 -0.682463 0.682413 -0.730967 14.7993 17.4089)" fill="#1E494A"/>
</svg>
