<svg width="69" height="67" viewBox="0 0 69 67" fill="none" xmlns="http://www.w3.org/2000/svg">
<path d="M38.6115 45.1152C40.4847 48.2865 39.7255 50.621 37.4341 52.7723M22.0624 37.5432L15.7829 38.2675C13.5808 38.3553 9.00634 39.8477 8.32606 45.1152C8.22618 45.8886 8.14435 46.3005 8.07464 46.893M25.5292 41.1646C26.2412 38.2675 24.4826 38.3333 25.0059 36.6214C25.5292 34.9095 25.3984 31.3539 28.0148 30.7613C27.557 30.454 26.6674 29.4049 26.772 27.6667C25.5575 27.9171 24.487 28.52 23.6323 29.3525M25.5292 41.1646L26.445 39.17M25.5292 41.1646C22.6736 39.3785 21.4866 36.8827 21.4802 34.5144M8.07464 46.893C7.55079 51.3452 7.71079 51.3894 6.03667 53.0165C9.21858 52.1082 14.0211 55.5384 18.7919 55.0669M8.07464 46.893C4.99012 46.2346 3.02778 42.0864 1 40.8354C3.1586 39.6502 3.7473 33.3292 8.07464 31.9465M26.445 39.17C26.6576 39.9108 27.0257 40.8675 27.6224 42.0864C30.4481 45.1416 33.5094 44.2812 34.6868 43.4691C34.3783 43.2104 32.0498 42.911 31.8607 41.1646M26.445 39.17C26.0236 37.7018 26.2131 37.0819 26.445 36.9506C27.1558 37.4106 28.1523 38.0153 29.121 38.5309M21.4802 34.5144C13.1011 33.5926 5.89279 34.8041 3.48566 24.6379C3.0147 21.7934 2.30826 19.5021 1 18.5144C4.00895 19.2387 8.07464 16.4733 11.4004 16.0782C16.3063 16.0782 17.9415 17.9438 18.1378 18.251M21.4802 34.5144C21.4748 32.5451 22.2858 30.664 23.6323 29.3525M23.6323 29.3525C20.4708 28.2199 15.0504 23.9794 18.6611 16.0782C18.8925 15.7595 19.0716 15.3751 19.209 14.9588M32.005 24.8354C32.2012 19.3704 31.6779 16.0782 26.772 13.7737C22.8766 11.9438 20.6234 12.3251 19.5768 11.0082C19.6605 11.8671 19.662 13.5864 19.209 14.9588M19.209 14.9588C16.6333 7.51852 23.5014 5.27984 22.0624 1C25.0059 4.75309 30.7621 1.79012 34.1635 8.37449M18.7919 55.0669C20.5921 54.889 22.3878 54.1556 24.0902 52.4239C27.7532 47.6173 27.0991 45.5761 29.5193 43.4691C28.2765 45.3128 26.445 48.0123 26.445 48.7366C26.445 49.6794 26.772 52.0288 32.5936 56.177C33.2252 55.803 33.828 55.4342 34.3963 55.0669M18.7919 55.0669C19.0535 61.3786 23.109 60.1934 22.8474 65C25.0059 60.5226 32.2089 63.8993 34.3963 55.0669M34.3963 55.0669C35.5748 54.3054 36.6048 53.5508 37.4341 52.7723M37.4341 52.7723C37.8266 55.5533 39.5403 61.3391 43.2557 62.2346C47.8999 63.3539 50.1239 63.2881 52.6095 65C51.1415 61.7389 53.1627 59.4762 53.1982 55.321M43.2557 42.679C50.1108 47.8412 52.3479 50.5802 52.6095 51.3045C53.0828 52.972 53.2086 54.1069 53.1982 55.321M53.1982 55.321C57.777 55.716 59.216 53.7407 61.5054 55.321C59.4777 52.7723 63.5986 46.4321 56.7958 40.7695M35.7988 45.1152C45.0218 46.2346 45.4143 36.8848 42.7978 35.6996M35.7988 45.1152C36.7364 44.0243 38.69 41.5751 39.004 40.5062C41.9475 39.9794 41.664 36.8564 42.7978 35.6996M35.7988 45.1152C36.1695 44.4206 36.8192 42.8974 36.4529 42.3614M42.7978 35.6996L41.4896 36.2263M32.005 40.028C32.0697 39.8272 32.156 39.6138 32.2666 39.3868C32.2222 39.5386 32.0782 39.603 31.8607 39.5995M32.005 40.028C31.8646 40.4632 31.8255 40.8391 31.8607 41.1646M32.005 40.028L34.4252 39.619M31.8607 41.1646C33.7785 42.535 35.3348 42.6782 36.4529 42.3614M36.4529 42.3614C37.3117 42.118 37.912 41.6032 38.219 41.1646C38.7423 40.4997 39.5534 39.0422 38.6115 38.5309C38.2704 39.3547 37.4849 39.5708 36.78 39.5546M31.8607 39.5995C31.2932 39.5902 30.2251 39.1185 29.121 38.5309M31.8607 39.5995C31.1638 39.0803 30.1182 37.7923 30.7474 36.358M29.9772 32.8227C28.4669 33.2086 28.0345 34.6369 28.0148 35.3704C24.0248 32.7366 30.6967 28.1934 32.6591 29.7078C32.332 30.059 31.4424 31.1564 30.5005 32.7366C30.3132 32.7519 30.139 32.7813 29.9772 32.8227ZM29.9772 32.8227C29.9772 33.5157 30.0306 33.6995 30.1734 33.9049M29.121 38.5309C28.338 37.7188 27.1776 35.5416 28.7998 33.3292M34.4252 39.619L35.7988 39.3868C36.0494 39.4709 36.4032 39.546 36.78 39.5546M34.4252 39.619C34.7703 39.2629 35.3755 38.4589 35.6527 37.5432M35.7988 36.6214C37.3033 36.4239 37.5649 34.3169 37.892 34.1852C38.1536 34.0798 38.219 34.1413 38.219 34.1852M35.7988 36.6214C35.7988 36.9328 35.7433 37.244 35.6527 37.5432M35.7988 36.6214C35.7988 35.7843 35.4575 35.2633 35.1447 34.9889M36.78 39.5546C37.5649 39.1475 39.1086 38.0963 39.004 37.1481M30.7474 36.358C30.7666 36.3143 30.7873 36.2704 30.8097 36.2263M30.7474 36.358C30.8631 36.5825 31.4007 36.9411 32.6591 36.8461M35.6527 37.5432C35.2435 37.631 34.2159 37.5959 33.3786 36.7531C33.1161 36.7997 32.8768 36.8297 32.6591 36.8461M30.1734 33.9049C30.3469 34.1544 30.6524 34.4358 31.1546 35.6996C31.012 35.8763 30.8982 36.0522 30.8097 36.2263M30.1734 33.9049C30.5877 33.4716 31.6648 32.6971 32.6591 33.0658C32.8824 32.9475 33.127 32.8602 33.3786 32.7972M31.4817 30.9588C34.5691 30.5472 35.5488 31.9725 35.6527 32.7366C35.2002 32.6515 34.2473 32.5796 33.3786 32.7972M33.3786 32.7972C33.4619 32.7714 33.5696 32.7658 33.6896 32.7972M33.6896 32.7972C34.0719 32.8974 34.5787 33.3745 34.8176 34.7778C34.9084 34.8143 35.0245 34.8834 35.1447 34.9889M33.6896 32.7972C33.2521 33.0792 32.4209 33.764 32.1131 34.5144M32.005 34.9095C31.3247 35.5416 30.9247 36.0508 30.8097 36.2263M32.005 34.9095L32.6591 36.8461M32.005 34.9095C32.022 34.777 32.0597 34.6447 32.1131 34.5144M32.1131 34.5144L35.1447 34.9889" stroke="#638889"/>
<path d="M32.3974 24.9013L31.6125 16.0782C31.4817 14.4541 31.7041 10.7185 33.6403 8.76957C36.0605 6.33336 36.8454 6.33336 39.4619 5.14817C41.555 4.20002 42.2528 3.39234 42.34 3.10702L42.9941 1.7243C42.9941 2.3169 43.1249 3.58109 43.1249 3.89714C43.1249 4.21319 45 6.70647 46.003 7.91361C46.2874 8.42154 46.6984 9.21547 47.0909 10.0864M32.3974 24.9013C33.7357 25.1504 34.4569 25.381 35.668 25.9548M32.3974 24.9013C32.3974 24.9013 31.7434 24.7866 31.3509 24.9013C30.9764 25.0107 30.5005 25.428 30.5005 25.428C30.5005 25.428 27.8448 27.4823 27.6878 28.8519C27.5308 30.2214 28.2111 30.1688 28.669 30.3004C29.0397 30.1249 29.9642 29.6815 30.6968 29.3128C31.4294 28.9441 32.2231 29.4664 32.5283 29.7737C34.7261 29.0362 36.3658 29.4664 36.9108 29.7737M44.1715 22.2675C44.6294 21.631 45.6367 20.3054 46.003 20.0947C46.4609 19.8313 48.4232 15.6173 48.227 13.5762C48.1361 12.6303 47.6311 11.2854 47.0909 10.0864M44.1715 22.2675L41.6859 21.7408C41.119 21.5652 39.4619 21.3194 37.3687 21.7408C35.2756 22.1622 35.3628 23.8917 35.668 24.7037V25.9548M44.1715 22.2675C44.4195 22.6294 44.7411 23.1156 45.0781 23.6502M35.668 25.9548C36.1913 26.1523 37.3426 26.7185 37.7612 27.4033C38.1798 28.0881 37.3687 29.2689 36.9108 29.7737M36.9108 29.7737C37.107 30.3004 37.5653 30.7362 37.7612 30.8272C38.6115 31.2222 38.6769 32.6708 38.3499 32.6708C38.0228 32.6708 36.453 32.605 36.9108 32.8683C37.3687 33.1317 37.9574 33 38.1537 33.3292C38.3499 33.6585 38.1537 34.0535 38.1537 34.3827C38.1537 34.712 38.8732 35.0412 38.6115 35.5021C39.004 36.4897 39.4619 39.0576 40.116 38.465C40.7701 37.8725 41.9475 36.7531 41.9475 32.8683M36.9108 29.7737L37.6303 29.1153H38.6115C38.9822 29.1811 39.9328 29.5498 40.7701 30.498C41.6074 31.4461 41.9039 32.4733 41.9475 32.8683M41.9475 32.8683C41.9693 32.6928 42.4054 32.3548 43.9753 32.4074C45.5451 32.4601 46.6353 31.6393 46.9842 31.2222C47.2671 30.3678 47.2753 29.6139 47.194 28.8519M45.0781 23.6502C45.9263 24.9961 46.8718 26.6494 46.9842 27.4033C47.0591 27.9064 47.1437 28.3807 47.194 28.8519M45.0781 23.6502C46.542 22.0919 49.3071 19.7329 50.4719 18.997C51.0475 18.6335 53.0828 17.4601 55.4222 17.213M57.777 33.7902C60.6028 33.3161 62.5302 31.3978 63.1407 30.498C66.0842 27.4033 64.776 23.2552 67 20.7531H65.7572C62.2904 20.2922 62.204 18.0977 57.777 17.3292C56.9865 17.1506 56.1881 17.1322 55.4222 17.213M57.777 33.7902C57.6462 33.5487 57.0705 32.6313 55.8147 30.893C54.2448 28.7202 52.1516 27.6008 50.5818 27.7325C49.3259 27.8379 47.7999 28.5227 47.194 28.8519M57.777 33.7902C57.777 34.3696 58.7364 35.4362 59.216 35.8971L59.6739 36.2264C59.5649 36.1825 59.2553 36.1737 58.889 36.4897C58.5227 36.8058 57.995 37.9383 57.777 38.465C57.3191 39.7819 55.9193 42.7317 53.9831 43.9959C52.047 45.2601 49.6878 44.2154 48.7502 43.535L43.9753 40.7696M47.0909 10.0864C48.1861 9.50249 52.8823 10.9194 53.7869 9.82307C53.6779 10.284 53.6299 11.4428 54.3102 12.391C55.1605 13.5762 55.7492 17.1724 55.4222 17.213M37.6303 34.3827C37.5867 34.1633 37.2771 33.619 36.3875 33.1976C35.4979 32.7762 35.1883 32.2757 35.1447 32.0782H34.7522C34.7522 32.0124 34.7915 31.8412 34.9485 31.6832C35.1447 31.4856 33.7711 30.6955 31.6779 30.8272M32.9861 36.7531C33.0271 36.5881 33.0816 36.3368 33.117 36.1003M35.2755 35.2387C34.4084 36.0089 33.5015 35.6179 33.2062 35.5021M33.117 36.1003C33.1568 35.8336 33.1724 35.5858 33.117 35.5021C33.0881 35.4586 33.1228 35.4694 33.2062 35.5021M33.117 36.1003C32.9861 35.9887 32.646 35.7786 32.332 35.8313C32.018 35.884 33.1606 35.1509 33.7711 34.7778L33.2062 35.5021" stroke="#638889"/>
</svg>
