<svg width="32" height="32" viewBox="0 0 32 32" fill="none" xmlns="http://www.w3.org/2000/svg">
<circle cx="16" cy="16" r="16" fill="#4E534D"/>
<path d="M8.82698 11.138L9.27248 11.365L8.82698 11.138ZM9.2682 22.7318L9.62175 23.0854H9.62175L9.2682 22.7318ZM21.862 20.173L21.635 19.7275L21.862 20.173ZM23.173 18.862L22.7275 18.635L23.173 18.862ZM23.173 11.138L22.7275 11.365V11.365L23.173 11.138ZM21.862 9.82698L22.089 9.38148V9.38148L21.862 9.82698ZM10.138 9.82698L10.365 10.2725L10.138 9.82698ZM11.2071 20.7929L11.5607 21.1464L11.2071 20.7929ZM9 14.3C9 13.4517 9.00039 12.8455 9.03921 12.3703C9.07756 11.901 9.15089 11.6037 9.27248 11.365L8.38148 10.911C8.17609 11.3141 8.08593 11.7577 8.04253 12.2889C7.99961 12.8142 8 13.4682 8 14.3H9ZM9 15.5V14.3H8V15.5H9ZM8 15.5V20.5H9V15.5H8ZM8 20.5V22.4136H9V20.5H8ZM8 22.4136C8 23.26 9.02329 23.6838 9.62175 23.0854L8.91465 22.3782C8.91754 22.3753 8.92812 22.368 8.94323 22.3654C8.9556 22.3632 8.96421 22.3654 8.96913 22.3674C8.97406 22.3695 8.98164 22.374 8.98888 22.3843C8.99771 22.3968 9 22.4095 9 22.4136H8ZM9.62175 23.0854L11.5607 21.1464L10.8536 20.4393L8.91465 22.3782L9.62175 23.0854ZM18.7 20H11.9142V21H18.7V20ZM21.635 19.7275C21.3963 19.8491 21.099 19.9224 20.6297 19.9608C20.1545 19.9996 19.5483 20 18.7 20V21C19.5318 21 20.1858 21.0004 20.7111 20.9575C21.2423 20.9141 21.6859 20.8239 22.089 20.6185L21.635 19.7275ZM22.7275 18.635C22.4878 19.1054 22.1054 19.4878 21.635 19.7275L22.089 20.6185C22.7475 20.283 23.283 19.7475 23.6185 19.089L22.7275 18.635ZM23 15.7C23 16.5483 22.9996 17.1545 22.9608 17.6297C22.9224 18.099 22.8491 18.3963 22.7275 18.635L23.6185 19.089C23.8239 18.6859 23.9141 18.2423 23.9575 17.7111C24.0004 17.1858 24 16.5318 24 15.7H23ZM23 14.3V15.7H24V14.3H23ZM22.7275 11.365C22.8491 11.6037 22.9224 11.901 22.9608 12.3703C22.9996 12.8455 23 13.4517 23 14.3H24C24 13.4682 24.0004 12.8142 23.9575 12.2889C23.9141 11.7577 23.8239 11.3141 23.6185 10.911L22.7275 11.365ZM21.635 10.2725C22.1054 10.5122 22.4878 10.8946 22.7275 11.365L23.6185 10.911C23.283 10.2525 22.7475 9.71703 22.089 9.38148L21.635 10.2725ZM18.7 10C19.5483 10 20.1545 10.0004 20.6297 10.0392C21.099 10.0776 21.3963 10.1509 21.635 10.2725L22.089 9.38148C21.6859 9.17609 21.2423 9.08593 20.7111 9.04253C20.1858 8.99961 19.5318 9 18.7 9V10ZM13.3 10H18.7V9H13.3V10ZM10.365 10.2725C10.6037 10.1509 10.901 10.0776 11.3703 10.0392C11.8455 10.0004 12.4517 10 13.3 10V9C12.4682 9 11.8142 8.99961 11.2889 9.04253C10.7577 9.08593 10.3141 9.17609 9.91103 9.38148L10.365 10.2725ZM9.27248 11.365C9.51217 10.8946 9.89462 10.5122 10.365 10.2725L9.91103 9.38148C9.25247 9.71703 8.71703 10.2525 8.38148 10.911L9.27248 11.365ZM11.5607 21.1464C11.6544 21.0527 11.7816 21 11.9142 21V20C11.5164 20 11.1349 20.158 10.8536 20.4393L11.5607 21.1464Z" fill="white"/>
<path d="M12.5 13.5L19.5 13.5" stroke="white" stroke-linecap="round" stroke-linejoin="round"/>
<path d="M12.5 16.5H17.5" stroke="white" stroke-linecap="round" stroke-linejoin="round"/>
</svg>
