<svg width="48" height="48" viewBox="0 0 48 48" fill="none" xmlns="http://www.w3.org/2000/svg">
<path fill-rule="evenodd" clip-rule="evenodd" d="M8.224 40.0427C8.93762 30.1588 37.6127 29.8291 40.2301 39.5831C44.1132 35.5398 46.5 30.0486 46.5 24C46.5 11.5736 36.4264 1.5 24 1.5C11.5736 1.5 1.5 11.5736 1.5 24C1.5 30.281 4.07369 35.9609 8.224 40.0427ZM48 24C48 37.2548 37.2548 48 24 48C10.7452 48 0 37.2548 0 24C0 10.7452 10.7452 0 24 0C37.2548 0 48 10.7452 48 24ZM34.1051 16.421C34.1051 22.002 29.5808 26.5263 23.9998 26.5263C18.4188 26.5263 13.8945 22.002 13.8945 16.421C13.8945 10.8401 18.4188 6.31577 23.9998 6.31577C29.5808 6.31577 34.1051 10.8401 34.1051 16.421Z" fill="#1E494A"/>
</svg>
