<svg width="70" height="42" viewBox="0 0 70 42" fill="none" xmlns="http://www.w3.org/2000/svg">
<path fill-rule="evenodd" clip-rule="evenodd" d="M5.55133 40.9025H1L12.6361 1H16.7087L28.3447 40.9025H23.6693L21.0049 31.3259H8.03812L5.55133 40.9025ZM36.8138 18.3576L35.9082 15.3767C53.094 8.94229 52.9581 17.7604 52.7483 31.383V31.3832C52.7024 34.3629 52.653 37.5724 52.7805 40.9025H50.1358C50.0766 41.235 49.8516 40.9025 49.4253 36.9123C41.1444 42.8231 35.9082 36.9123 35.9082 31.3259C35.9082 25.7396 38.2348 20.3527 48.7148 22.3479C49.8516 13.2501 41.2544 15.8969 36.8138 18.3576ZM69 35.5157L63.8347 18.3576L58.5275 35.5157H63.8347H69ZM14.4328 7.1849L9.81445 24.9415H19.584L14.4328 7.1849ZM48.7148 26.7371C44.6351 24.9415 36.4899 26.7371 39.9807 34.3278C46.9624 40.8627 50.4532 29.7534 48.7148 26.7371Z" fill="#1E494A"/>
<path d="M1 40.9025L0.519993 40.7625L0.333368 41.4025H1V40.9025ZM5.55133 40.9025V41.4025H5.93808L6.03528 41.0282L5.55133 40.9025ZM12.6361 1V0.5H12.261L12.1561 0.860024L12.6361 1ZM16.7087 1L17.1887 0.860024L17.0837 0.5H16.7087V1ZM28.3447 40.9025V41.4025H29.0114L28.8248 40.7625L28.3447 40.9025ZM23.6693 40.9025L23.1876 41.0365L23.2894 41.4025H23.6693V40.9025ZM21.0049 31.3259L21.4866 31.1919L21.3848 30.8259H21.0049V31.3259ZM8.03812 31.3259V30.8259H7.65137L7.55417 31.2002L8.03812 31.3259ZM35.9082 15.3767L35.7329 14.9084L35.2934 15.073L35.4298 15.522L35.9082 15.3767ZM36.8138 18.3576L36.3353 18.5029L36.5151 19.0947L37.0561 18.7949L36.8138 18.3576ZM52.7483 31.383L52.2483 31.3753V31.383H52.7483ZM52.7483 31.3832L53.2483 31.3909V31.3832H52.7483ZM52.7805 40.9025V41.4025H53.3L53.2801 40.8834L52.7805 40.9025ZM50.1358 40.9025V40.4025H49.717L49.6435 40.8149L50.1358 40.9025ZM49.4253 36.9123L49.9225 36.8592L49.8315 36.008L49.1348 36.5053L49.4253 36.9123ZM48.7148 22.3479L48.6213 22.839L49.1448 22.9387L49.2109 22.4098L48.7148 22.3479ZM63.8347 18.3576L64.3135 18.2135L63.8412 16.6446L63.3571 18.2098L63.8347 18.3576ZM69 35.5157V36.0157H69.6727L69.4788 35.3716L69 35.5157ZM58.5275 35.5157L58.0499 35.3679L57.8495 36.0157H58.5275V35.5157ZM9.81445 24.9415L9.33055 24.8157L9.16777 25.4415H9.81445V24.9415ZM14.4328 7.1849L14.913 7.04559L14.4065 5.29964L13.9489 7.05904L14.4328 7.1849ZM19.584 24.9415V25.4415H20.2496L20.0642 24.8022L19.584 24.9415ZM48.7148 26.7371L49.1481 26.4875L49.0662 26.3455L48.9163 26.2795L48.7148 26.7371ZM39.9807 34.3278L39.5265 34.5367L39.5674 34.6259L39.639 34.6929L39.9807 34.3278ZM1 41.4025H5.55133V40.4025H1V41.4025ZM12.1561 0.860024L0.519993 40.7625L1.48001 41.0425L13.1161 1.13998L12.1561 0.860024ZM16.7087 0.5H12.6361V1.5H16.7087V0.5ZM28.8248 40.7625L17.1887 0.860024L16.2287 1.13998L27.8647 41.0425L28.8248 40.7625ZM23.6693 41.4025H28.3447V40.4025H23.6693V41.4025ZM20.5232 31.4599L23.1876 41.0365L24.151 40.7685L21.4866 31.1919L20.5232 31.4599ZM8.03812 31.8259H21.0049V30.8259H8.03812V31.8259ZM6.03528 41.0282L8.52207 31.4516L7.55417 31.2002L5.06738 40.7769L6.03528 41.0282ZM35.4298 15.522L36.3353 18.5029L37.2922 18.2123L36.3866 15.2314L35.4298 15.522ZM53.2482 31.3907C53.3006 27.9928 53.3494 24.8597 53.1205 22.1875C52.8923 19.5237 52.3836 17.2397 51.2664 15.5794C50.1242 13.8819 48.3839 12.8906 45.8472 12.7483C43.3433 12.6078 40.0522 13.2913 35.7329 14.9084L36.0835 15.845C40.3571 14.2449 43.4936 13.6178 45.7912 13.7467C48.0561 13.8738 49.491 14.732 50.4368 16.1376C51.4076 17.5804 51.8997 19.653 52.1241 22.2728C52.3478 24.8843 52.3009 27.962 52.2484 31.3753L53.2482 31.3907ZM53.2483 31.3832V31.383H52.2483V31.3832H53.2483ZM53.2801 40.8834C53.1532 37.5687 53.2023 34.3722 53.2482 31.3909L52.2484 31.3755C52.2025 34.3536 52.1527 37.5761 52.2808 40.9217L53.2801 40.8834ZM50.1358 41.4025H52.7805V40.4025H50.1358V41.4025ZM48.9281 36.9654C49.1414 38.9615 49.3064 40.0654 49.4295 40.6342C49.4605 40.7775 49.4908 40.8962 49.5213 40.9911C49.5461 41.0683 49.5881 41.1877 49.6639 41.2859C49.6966 41.3283 49.8028 41.457 49.9962 41.4918C50.2406 41.5358 50.4123 41.4018 50.4873 41.3133C50.5538 41.2349 50.5839 41.1536 50.5966 41.116C50.6121 41.0699 50.6217 41.0257 50.6281 40.9902L49.6435 40.8149C49.6425 40.8209 49.6434 40.8131 49.6489 40.7967C49.6516 40.7888 49.6704 40.7306 49.7242 40.6671C49.7865 40.5935 49.9443 40.4664 50.1734 40.5076C50.3514 40.5397 50.4409 40.656 50.4556 40.675C50.4953 40.7264 50.4958 40.755 50.4734 40.6853C50.4568 40.6335 50.4344 40.5496 50.4069 40.4227C50.2961 39.9107 50.1355 38.8533 49.9225 36.8592L48.9281 36.9654ZM35.4082 31.3259C35.4082 34.254 36.7772 37.3101 39.3001 38.8568C41.8661 40.43 45.4665 40.3523 49.7158 37.3192L49.1348 36.5053C45.1032 39.3831 41.9451 39.3054 39.8227 38.0043C37.6573 36.6767 36.4082 33.9842 36.4082 31.3259H35.4082ZM48.8083 21.8567C43.4938 20.8449 40.0961 21.6769 38.0373 23.6312C35.9953 25.5695 35.4082 28.4867 35.4082 31.3259H36.4082C36.4082 28.5788 36.9844 26.0094 38.7257 24.3565C40.4502 22.7195 43.4557 21.8556 48.6213 22.839L48.8083 21.8567ZM37.0561 18.7949C39.2551 17.5764 42.409 16.359 44.8231 16.5172C46.0096 16.595 46.9529 16.999 47.5537 17.8326C48.1648 18.6804 48.4952 20.0727 48.2186 22.2859L49.2109 22.4098C49.5028 20.0741 49.1849 18.3856 48.3649 17.2479C47.5347 16.0959 46.2643 15.6095 44.8885 15.5194C42.1781 15.3417 38.8131 16.6781 36.5714 17.9203L37.0561 18.7949ZM63.356 18.5017L68.5212 35.6598L69.4788 35.3716L64.3135 18.2135L63.356 18.5017ZM59.0052 35.6634L64.3124 18.5053L63.3571 18.2098L58.0499 35.3679L59.0052 35.6634ZM63.8347 35.0157H58.5275V36.0157H63.8347V35.0157ZM69 35.0157H63.8347V36.0157H69V35.0157ZM10.2984 25.0674L14.9167 7.31075L13.9489 7.05904L9.33055 24.8157L10.2984 25.0674ZM19.584 24.4415H9.81445V25.4415H19.584V24.4415ZM13.9526 7.3242L19.1038 25.0808L20.0642 24.8022L14.913 7.04559L13.9526 7.3242ZM48.9163 26.2795C46.7468 25.3247 43.525 25.3194 41.2658 26.5756C40.1192 27.2132 39.1968 28.1909 38.8174 29.5528C38.4397 30.9084 38.6213 32.5685 39.5265 34.5367L40.435 34.1189C39.5947 32.2918 39.4854 30.881 39.7807 29.8211C40.0742 28.7675 40.7885 27.9853 41.7518 27.4496C43.7125 26.3593 46.6032 26.354 48.5134 27.1948L48.9163 26.2795ZM39.639 34.6929C41.4451 36.3833 43.115 37.0152 44.6009 36.8185C46.0803 36.6227 47.2275 35.6249 48.0363 34.3878C48.8472 33.1473 49.3601 31.6076 49.5604 30.1843C49.7575 28.784 49.6666 27.3872 49.1481 26.4875L48.2816 26.9868C48.6323 27.5952 48.7569 28.7182 48.5702 30.045C48.3867 31.3488 47.9165 32.7435 47.1993 33.8406C46.4799 34.9409 45.554 35.6837 44.4697 35.8272C43.3917 35.9698 42.0072 35.5398 40.3224 33.9628L39.639 34.6929Z" fill="#1E494A"/>
</svg>
