<svg width="70" height="42" viewBox="0 0 70 42" fill="none" xmlns="http://www.w3.org/2000/svg">
<path fill-rule="evenodd" clip-rule="evenodd" d="M5.7547 40.9025H1L13.156 1H17.4106L29.5666 40.9025H24.6822L21.8988 31.3259H8.3526L5.7547 40.9025ZM38.414 18.3576L37.468 15.3767C55.4217 8.94229 55.2798 17.7604 55.0605 31.3831V31.3831V31.3832V31.3832C55.0126 34.3629 54.9609 37.5724 55.0942 40.9025H52.3313C52.2695 41.235 52.0344 40.9025 51.5891 36.9123C42.9382 42.8231 37.468 36.9123 37.468 31.3259C37.468 25.7396 39.8985 20.3527 50.8468 22.3479C52.0344 13.2501 43.0531 15.8969 38.414 18.3576ZM69 22.3479L63.6039 40.1111L58.0596 22.3479H63.6039H69ZM15.033 7.18484L10.2083 24.9415H20.4144L15.033 7.18484ZM50.8469 26.7371C46.5849 24.9415 38.0757 26.7371 41.7225 34.3278C49.0161 40.8627 52.6629 29.7534 50.8469 26.7371Z" fill="#1E494A"/>
<path d="M1 40.9025L0.521702 40.7568L0.324992 41.4025H1V40.9025ZM5.7547 40.9025V41.4025H6.13713L6.23726 41.0334L5.7547 40.9025ZM13.156 1V0.5H12.7856L12.6777 0.85429L13.156 1ZM17.4106 1L17.8889 0.85429L17.781 0.5H17.4106V1ZM29.5666 40.9025V41.4025H30.2416L30.0449 40.7568L29.5666 40.9025ZM24.6822 40.9025L24.2021 41.0421L24.3069 41.4025H24.6822V40.9025ZM21.8988 31.3259L22.3789 31.1864L22.2742 30.8259H21.8988V31.3259ZM8.3526 31.3259V30.8259H7.97016L7.87004 31.195L8.3526 31.3259ZM37.468 15.3767L37.2993 14.906L36.8456 15.0686L36.9914 15.5279L37.468 15.3767ZM38.414 18.3576L37.9374 18.5088L38.1187 19.0802L38.6483 18.7993L38.414 18.3576ZM55.0605 31.3831L54.5605 31.375V31.3831H55.0605ZM55.0605 31.3832L55.5605 31.3913V31.3832H55.0605ZM55.0942 40.9025V41.4025H55.6146L55.5938 40.8825L55.0942 40.9025ZM52.3313 40.9025V40.4025H51.9157L51.8397 40.8111L52.3313 40.9025ZM51.5891 36.9123L52.086 36.8568L51.9937 36.0302L51.307 36.4994L51.5891 36.9123ZM50.8468 22.3479L50.7572 22.8398L51.2745 22.934L51.3426 22.4126L50.8468 22.3479ZM63.6039 40.1111L63.1267 40.2601L63.6104 41.81L64.0824 40.2564L63.6039 40.1111ZM69 22.3479L69.4784 22.4932L69.6744 21.8479H69V22.3479ZM58.0596 22.3479V21.8479H57.3798L57.5823 22.4968L58.0596 22.3479ZM10.2083 24.9415L9.72583 24.8104L9.55435 25.4415H10.2083V24.9415ZM15.033 7.18484L15.5115 7.03983L15.0068 5.37442L14.5505 7.05374L15.033 7.18484ZM20.4144 24.9415V25.4415H21.0884L20.8929 24.7965L20.4144 24.9415ZM50.8469 26.7371L51.2752 26.4792L51.1912 26.3396L51.041 26.2763L50.8469 26.7371ZM41.7225 34.3278L41.2718 34.5443L41.3148 34.6339L41.3888 34.7002L41.7225 34.3278ZM1 41.4025H5.7547V40.4025H1V41.4025ZM12.6777 0.85429L0.521702 40.7568L1.4783 41.0482L13.6343 1.14571L12.6777 0.85429ZM17.4106 0.5H13.156V1.5H17.4106V0.5ZM30.0449 40.7568L17.8889 0.85429L16.9323 1.14571L29.0883 41.0482L30.0449 40.7568ZM24.6822 41.4025H29.5666V40.4025H24.6822V41.4025ZM21.4187 31.4655L24.2021 41.0421L25.1624 40.763L22.3789 31.1864L21.4187 31.4655ZM8.3526 31.8259H21.8988V30.8259H8.3526V31.8259ZM6.23726 41.0334L8.83516 31.4568L7.87004 31.195L5.27214 40.7716L6.23726 41.0334ZM36.9914 15.5279L37.9374 18.5088L38.8906 18.2064L37.9445 15.2255L36.9914 15.5279ZM55.5605 31.3911C55.6152 27.9935 55.6662 24.8592 55.4269 22.1856C55.1884 19.5198 54.6563 17.2328 53.4881 15.5709C52.2956 13.8745 50.4844 12.8898 47.8487 12.7482C45.2419 12.6082 41.8102 13.2893 37.2993 14.906L37.6367 15.8474C42.1026 14.2469 45.3857 13.6174 47.795 13.7468C50.1754 13.8746 51.6813 14.7394 52.6701 16.146C53.6832 17.5873 54.1967 19.6569 54.4309 22.2747C54.6645 24.8848 54.6155 27.9613 54.5606 31.375L55.5605 31.3911ZM55.5605 31.3831V31.3831H54.5605V31.3831H55.5605ZM55.5605 31.3832V31.3831H54.5605V31.3832H55.5605ZM55.5605 31.3832V31.3832H54.5605V31.3832H55.5605ZM55.5938 40.8825C55.4612 37.5686 55.5125 34.3726 55.5605 31.3913L54.5606 31.3752C54.5127 34.3532 54.4607 37.5763 54.5946 40.9225L55.5938 40.8825ZM52.3313 41.4025H55.0942V40.4025H52.3313V41.4025ZM51.0921 36.9677C51.3149 38.9639 51.4875 40.0688 51.6163 40.6387C51.6488 40.7823 51.6806 40.9016 51.7127 40.9973C51.7388 41.0753 51.7832 41.1958 51.8626 41.2942C51.8986 41.3389 52.0052 41.46 52.1931 41.4924C52.4264 41.5326 52.5952 41.411 52.6744 41.3215C52.7436 41.2433 52.7756 41.1614 52.7893 41.1223C52.8059 41.0752 52.8162 41.0301 52.8229 40.994L51.8397 40.8111C51.8387 40.8165 51.8399 40.8078 51.846 40.7904C51.8493 40.781 51.8695 40.7222 51.9255 40.6589C51.9915 40.5843 52.1456 40.4695 52.3629 40.507C52.5348 40.5366 52.624 40.6454 52.6411 40.6667C52.6828 40.7183 52.6838 40.748 52.6607 40.6792C52.6436 40.628 52.6203 40.5447 52.5917 40.4182C52.4762 39.9074 52.3085 38.8509 52.086 36.8568L51.0921 36.9677ZM36.968 31.3259C36.968 34.2639 38.4033 37.3195 41.0314 38.8618C43.6951 40.425 47.4376 40.3544 51.8711 37.3251L51.307 36.4994C47.0896 39.381 43.7715 39.3104 41.5375 37.9993C39.2677 36.6673 37.968 33.9743 37.968 31.3259H36.968ZM50.9364 21.856C45.3931 20.8458 41.8581 21.677 39.7155 23.6238C37.5833 25.5612 36.968 28.4817 36.968 31.3259H37.968C37.968 28.5838 38.5679 26.0177 40.388 24.3639C42.1978 22.7195 45.3522 21.8548 50.7572 22.8398L50.9364 21.856ZM38.6483 18.7993C40.9458 17.5807 44.2492 16.3583 46.7841 16.5173C48.0348 16.5958 49.0283 17.0045 49.6581 17.841C50.295 18.6869 50.6394 20.0741 50.351 22.2831L51.3426 22.4126C51.648 20.0727 51.3151 18.3791 50.457 17.2395C49.5918 16.0904 48.2728 15.6088 46.8467 15.5193C44.0281 15.3425 40.5213 16.6739 38.1797 17.9159L38.6483 18.7993ZM64.0824 40.2564L69.4784 22.4932L68.5216 22.2025L63.1255 39.9658L64.0824 40.2564ZM57.5823 22.4968L63.1267 40.2601L64.0812 39.9621L58.5369 22.1989L57.5823 22.4968ZM63.6039 21.8479H58.0596V22.8479H63.6039V21.8479ZM69 21.8479H63.6039V22.8479H69V21.8479ZM10.6908 25.0726L15.5155 7.31595L14.5505 7.05374L9.72583 24.8104L10.6908 25.0726ZM20.4144 24.4415H10.2083V25.4415H20.4144V24.4415ZM14.5545 7.32986L19.9359 25.0865L20.8929 24.7965L15.5115 7.03983L14.5545 7.32986ZM51.041 26.2763C48.7849 25.3258 45.4334 25.3206 43.084 26.5712C41.893 27.2052 40.928 28.1805 40.5303 29.5472C40.1339 30.9092 40.3256 32.5747 41.2718 34.5443L42.1732 34.1113C41.296 32.2855 41.1838 30.8801 41.4904 29.8266C41.7957 28.7779 42.5406 27.9933 43.5538 27.4539C45.6128 26.358 48.6469 26.3528 50.6528 27.1979L51.041 26.2763ZM41.3888 34.7002C43.2753 36.3904 45.0097 37.0131 46.5434 36.8188C48.0726 36.6251 49.267 35.6359 50.1137 34.3961C50.9612 33.1551 51.498 31.6135 51.7077 30.1873C51.9139 28.7846 51.8191 27.3824 51.2752 26.4792L50.4185 26.995C50.7827 27.5999 50.913 28.7175 50.7183 30.0419C50.527 31.3428 50.0367 32.7357 49.2879 33.8321C48.5382 34.9298 47.5668 35.6812 46.4177 35.8268C45.2731 35.9718 43.8165 35.5327 42.0562 33.9554L41.3888 34.7002Z" fill="#1E494A"/>
</svg>
