<svg width="32" height="32" viewBox="0 0 32 32" fill="none" xmlns="http://www.w3.org/2000/svg">
<circle cx="16" cy="16" r="16" fill="#4E534D"/>
<path d="M17 18H12.8176C11.2009 18 9.83017 19.1888 9.60153 20.7893V20.7893C9.29858 22.9099 11.095 24.7381 13.2206 24.4724L13.7782 24.4027C15.6188 24.1727 17 22.608 17 20.7531V11.3885C17 9.77017 17 8.961 17.474 8.4015C17.9479 7.84201 18.7461 7.70899 20.3424 7.44293L22.6991 7.05015C22.8349 7.02751 22.9028 7.01619 22.9395 7.05588C22.9761 7.09557 22.9594 7.16236 22.926 7.29593L22.0307 10.8772C22.0158 10.9369 22.0083 10.9667 21.9873 10.9867C21.9664 11.0067 21.9362 11.0128 21.8759 11.0248L17 12" stroke="white"/>
</svg>
